<svg width="48" height="48" viewBox="0 0 48 48" fill="none" xmlns="http://www.w3.org/2000/svg">
<rect width="48" height="48" fill="url(#paint0_radial)"/>
<path fill-rule="evenodd" clip-rule="evenodd" d="M16.3788 17.2432V23.2332H17.4436V22.1467H18.506V24.5679H19.5706V20.5176H20.6344V28.4328C20.6344 32.1885 23.8157 34 23.8157 34C18.4715 34 15.3157 30.6528 15.3157 26.1998V17.2432H16.3788ZM32.3157 25.3514V26.2611C32.3157 30.458 29.4758 33.6676 24.6233 34L23.9895 33.6414C23.8851 33.5818 21.7346 32.3253 21.1594 29.7675C22.0086 30.3038 23.1044 30.6742 24.5295 30.7401C28.4775 30.9226 31.1622 29.2066 32.3157 25.3514ZM32.1917 14.2098V23.7541L31.7631 25.1477C30.8871 27.9977 29.156 29.634 26.502 30.1162C26.612 29.5516 26.6651 28.976 26.6651 28.4337V17.952C26.6651 16.1238 27.1859 14.2098 32.1917 14.2098ZM18.5032 19.9459V21.027H17.4407V19.9459H18.5032ZM19.5657 18.3243V19.4054H18.5032V18.3243H19.5657ZM20.6282 16.7027V17.7838H19.5657V16.7027H20.6282ZM18.5032 16.1622V17.2432H17.4407V16.1622H18.5032ZM19.5657 15.0811V16.1622H18.5032V15.0811H19.5657ZM16.3782 14V15.0811H15.3157V14H16.3782Z" fill="#FEFEFE"/>
<defs>
<radialGradient id="paint0_radial" cx="0" cy="0" r="1" gradientUnits="userSpaceOnUse" gradientTransform="translate(24) rotate(90) scale(48)">
<stop stop-color="#006FFF"/>
<stop offset="1" stop-color="#003C9E"/>
</radialGradient>
</defs>
</svg>
